<svg width="179" height="40" viewBox="0 0 179 40" fill="none" xmlns="http://www.w3.org/2000/svg">
<path fill-rule="evenodd" clip-rule="evenodd" d="M54.135 18.3881H50.8945V13.7899H54.1612C56.6016 13.7899 57.1138 14.9973 57.1138 16.0103C57.1138 17.6103 56.1395 18.3881 54.135 18.3881ZM57.1997 21.4052C59.1025 20.7636 61.0849 19.0237 61.0581 16.0103C61.0581 12.4728 58.6648 10.5246 54.3188 10.5246H47.0625C47.0148 10.5246 46.9762 10.5631 46.9762 10.6107V29.3256C46.9762 29.3733 47.0148 29.4119 47.0625 29.4119H50.8083C50.8559 29.4119 50.8945 29.3733 50.8945 29.3256V21.7057H53.0122L57.5713 29.3698C57.5868 29.396 57.615 29.4119 57.6453 29.4119H61.9935C62.0248 29.4119 62.0536 29.395 62.0689 29.3676C62.0841 29.3404 62.0833 29.3069 62.0668 29.2803L57.1997 21.4052Z" fill="white"/>
<path fill-rule="evenodd" clip-rule="evenodd" d="M69.3201 26.2636C67.418 26.2636 66.2367 24.8131 66.2367 22.4784C66.2367 20.1745 67.418 18.7434 69.3201 18.7434C71.2058 18.7434 72.3772 20.1745 72.3772 22.4784C72.3772 24.8131 71.2058 26.2636 69.3201 26.2636ZM69.3201 15.5095C65.4604 15.5095 62.6591 18.4403 62.6591 22.4784C62.6591 26.6618 65.336 29.4725 69.3201 29.4725C73.1645 29.4725 75.9549 26.531 75.9549 22.4784C75.9549 18.3099 73.2886 15.5095 69.3201 15.5095Z" fill="white"/>
<path fill-rule="evenodd" clip-rule="evenodd" d="M83.9919 18.7434C85.4276 18.7434 86.298 19.4187 86.5794 20.7501C86.5879 20.7899 86.6229 20.8185 86.6637 20.8185H89.9903C90.0145 20.8185 90.0373 20.8085 90.0539 20.7907C90.07 20.773 90.0783 20.7493 90.0761 20.7253C89.805 17.4104 87.6158 15.5093 84.0705 15.5093C82.0635 15.5093 80.3769 16.2116 79.193 17.5405C78.0605 18.8112 77.4619 20.5539 77.4619 22.5795C77.4619 26.8313 79.9438 29.4725 83.9393 29.4725C87.4754 29.4725 89.712 27.6 90.0759 24.335C90.0787 24.3107 90.0708 24.2863 90.0547 24.268C90.0383 24.2496 90.0149 24.2392 89.9903 24.2392H86.6637C86.6226 24.2392 86.5873 24.2684 86.5792 24.3086C86.3171 25.6252 85.4783 26.2384 83.9393 26.2384C81.416 26.2384 81.0393 23.9143 81.0393 22.5288C81.0393 20.6989 81.815 18.7434 83.9919 18.7434Z" fill="white"/>
<path fill-rule="evenodd" clip-rule="evenodd" d="M107.735 20.8485C108.077 19.3843 109.019 18.6424 110.535 18.6424C112.023 18.6424 112.931 19.3845 113.233 20.8485H107.735ZM110.587 15.5094C106.65 15.5094 104.005 18.3303 104.005 22.5289C104.005 26.8767 106.475 29.4724 110.614 29.4724C113.646 29.4724 116.04 27.6213 116.435 24.9707C116.439 24.9461 116.432 24.9208 116.416 24.9019C116.399 24.8828 116.375 24.872 116.35 24.872H113.05C113.013 24.872 112.981 24.8948 112.969 24.9293C112.607 25.9532 111.887 26.3902 110.561 26.3902C108.808 26.3902 107.818 25.4606 107.618 23.6273H116.717C116.762 23.6273 116.8 23.5922 116.803 23.5471C116.829 23.1723 116.856 22.7849 116.856 22.3264C116.856 18.1216 114.454 15.5094 110.587 15.5094Z" fill="white"/>
<path fill-rule="evenodd" clip-rule="evenodd" d="M127.45 15.5094H124.393V12.1478C124.393 12.1002 124.355 12.0617 124.307 12.0617H120.902C120.854 12.0617 120.816 12.1002 120.816 12.1478V15.5094H118.492C118.445 15.5094 118.406 15.548 118.406 15.5955V18.6377C118.406 18.6854 118.445 18.7238 118.492 18.7238H120.816V25.8241C120.816 28.8521 122.536 29.4724 125.119 29.4724H127.45C127.498 29.4724 127.537 29.434 127.537 29.3863V26.3961C127.537 26.3486 127.498 26.31 127.45 26.31H125.722C124.691 26.31 124.393 26.032 124.393 25.0702V18.7238H127.45C127.498 18.7238 127.537 18.6854 127.537 18.6377V15.5955C127.537 15.548 127.498 15.5094 127.45 15.5094Z" fill="white"/>
<path fill-rule="evenodd" clip-rule="evenodd" d="M137.242 21.3843C137.242 21.3843 137.241 21.3841 137.241 21.3839L134.361 20.4736C133.288 20.1104 133.084 19.8219 133.084 19.4164C133.084 18.9973 133.268 18.4399 134.858 18.4399C136.093 18.4399 136.844 18.9478 136.867 19.7983C136.868 19.845 136.907 19.8822 136.953 19.8822H140.28C140.303 19.8822 140.325 19.873 140.341 19.8566C140.357 19.8405 140.366 19.8182 140.366 19.7953C140.354 18.2994 139.789 17.1697 138.687 16.4379C137.773 15.8304 136.476 15.5094 134.936 15.5094C132.296 15.5094 129.455 16.6085 129.402 19.6948C129.402 22.0968 131.167 22.952 132.894 23.4716L135.093 24.1543C136.686 24.6761 137.103 24.8373 137.103 25.4389C137.103 26.1161 136.725 26.5674 134.884 26.5674C133.409 26.5674 132.658 26.0308 132.586 24.9272C132.583 24.8818 132.546 24.8466 132.5 24.8466H129.173C129.126 24.8466 129.087 24.8852 129.087 24.9327C129.087 28.6848 132.254 29.4724 134.91 29.4724C136.013 29.4724 137.593 29.3055 138.859 28.5104C140.067 27.7512 140.68 26.6156 140.68 25.1352C140.68 22.9652 139.306 22.0663 137.242 21.3843Z" fill="white"/>
<path fill-rule="evenodd" clip-rule="evenodd" d="M145.635 20.8485C145.978 19.3843 146.919 18.6424 148.435 18.6424C149.924 18.6424 150.831 19.3845 151.134 20.8485H145.635ZM148.488 15.5094C144.551 15.5094 141.906 18.3303 141.906 22.5289C141.906 26.8767 144.376 29.4724 148.514 29.4724C151.546 29.4724 153.94 27.6213 154.336 24.9707C154.34 24.9461 154.332 24.9208 154.316 24.9019C154.299 24.8828 154.276 24.872 154.251 24.872H150.95C150.914 24.872 150.881 24.8948 150.869 24.9293C150.507 25.9532 149.787 26.3902 148.462 26.3902C146.708 26.3902 145.718 25.4606 145.518 23.6273H154.617C154.662 23.6273 154.7 23.5922 154.703 23.5471C154.729 23.1723 154.756 22.7849 154.756 22.3264C154.756 18.1216 152.354 15.5094 148.488 15.5094Z" fill="white"/>
<path fill-rule="evenodd" clip-rule="evenodd" d="M164.623 23.5313C164.623 25.263 163.292 26.6194 161.592 26.6194C160.855 26.6194 159.976 26.3853 159.976 25.2697C159.976 24.4513 160.549 23.994 161.951 23.6913L163.913 23.2888C164.134 23.2501 164.415 23.1765 164.623 23.075V23.5313ZM169.215 26.644H168.901C168.43 26.644 168.201 26.4086 168.201 25.924V20.5587C168.201 17.1611 166.348 15.5095 162.535 15.5095C159.03 15.5095 156.765 17.2143 156.765 19.8531C156.765 19.9008 156.804 19.9392 156.851 19.9392H160.178C160.226 19.9392 160.264 19.9008 160.264 19.8531C160.264 18.9741 161.002 18.5284 162.457 18.5284C163.837 18.5284 164.597 18.9633 164.597 19.7524C164.597 20.4096 164.347 20.6007 163.253 20.7761L161.001 21.2042C157.878 21.7556 156.294 23.1995 156.294 25.4963C156.294 27.8383 158.055 29.4119 160.676 29.4119C162.567 29.4119 163.973 28.7816 164.863 27.5376C164.925 28.8182 165.779 29.487 166.622 29.487H169.215C169.263 29.487 169.301 29.4484 169.301 29.4007V26.7301C169.301 26.6827 169.263 26.644 169.215 26.644Z" fill="white"/>
<path fill-rule="evenodd" clip-rule="evenodd" d="M178.792 18.7239C178.84 18.7239 178.878 18.6852 178.878 18.6378V15.5956C178.878 15.5479 178.84 15.5095 178.792 15.5095H175.735V12.1479C175.735 12.1002 175.696 12.0618 175.649 12.0618H172.243C172.196 12.0618 172.157 12.1002 172.157 12.1479V15.5095H169.833C169.786 15.5095 169.747 15.5479 169.747 15.5956V18.6378C169.747 18.6852 169.786 18.7239 169.833 18.7239H172.157V25.8242C172.157 28.8519 173.877 29.4724 176.461 29.4724H178.792C178.84 29.4724 178.878 29.434 178.878 29.3863V26.3962C178.878 26.3487 178.84 26.3101 178.792 26.3101H177.063C176.033 26.3101 175.735 26.032 175.735 25.0703V18.7239H178.792Z" fill="white"/>
<path fill-rule="evenodd" clip-rule="evenodd" d="M98.9768 20.9819L104.389 15.6571C104.414 15.6325 104.421 15.5953 104.408 15.563C104.395 15.5304 104.363 15.5094 104.328 15.5094H100.062C100.039 15.5094 100.018 15.518 100.002 15.5338L95.2048 20.1896V15.5957C95.2048 15.548 95.166 15.5094 95.1185 15.5094H91.7132C91.6655 15.5094 91.6269 15.548 91.6269 15.5957V29.3862C91.6269 29.4339 91.6655 29.4725 91.7132 29.4725H95.1185C95.166 29.4725 95.2048 29.4339 95.2048 29.3862V24.7155L96.4152 23.5245L100.443 29.4349C100.459 29.4583 100.486 29.4725 100.515 29.4725H104.758C104.79 29.4725 104.82 29.4546 104.835 29.426C104.849 29.3974 104.847 29.3632 104.829 29.3367L98.9768 20.9819Z" fill="white"/>
<path fill-rule="evenodd" clip-rule="evenodd" d="M15.8968 26.0975C14.8963 25.4843 10.6743 22.9072 10.6743 22.9072C10.6743 22.9072 6.45433 20.3259 5.4524 19.7153C5.3567 19.6569 5.23441 19.7227 5.22909 19.8347C5.21807 20.0686 5.20172 20.4108 5.19286 20.602C5.18873 20.6948 5.21236 20.7856 5.26178 20.8642C5.48253 21.2157 6.13296 22.2512 6.46063 22.7736C6.5841 22.9706 6.62092 23.2096 6.56244 23.4347L5.71549 26.6948C5.68162 26.8256 5.72789 26.9633 5.83383 27.0475C6.27041 27.3941 6.80997 27.7754 7.46059 28.1728C8.11082 28.5704 8.69646 28.8766 9.20392 29.1068C9.32699 29.1625 9.47074 29.1409 9.57137 29.051L12.0831 26.8083C12.2566 26.6534 12.4858 26.5769 12.7174 26.597C13.3312 26.65 14.5481 26.7558 14.9618 26.7919C15.0546 26.8 15.1468 26.7795 15.2273 26.7332C15.3933 26.638 15.6901 26.4674 15.8927 26.3509C15.9898 26.2952 15.9923 26.156 15.8968 26.0975Z" fill="white"/>
<path fill-rule="evenodd" clip-rule="evenodd" d="M8.80812 30.2596C8.76479 29.9962 8.59721 29.7694 8.35835 29.6504C7.68922 29.3166 7.15714 28.9974 7.01162 28.9085C6.86609 28.8196 6.33914 28.4918 5.73676 28.0484C5.52192 27.8902 5.24367 27.8447 4.98965 27.9264L4.84432 27.9731C3.83511 28.2983 3.05747 29.1093 2.77548 30.132C2.08429 32.6386 0.783047 37.3582 0.197999 39.4799C0.111945 39.7917 0.487274 40.0208 0.724956 39.8021C2.34423 38.3123 5.94589 34.9982 7.85857 33.238C8.63896 32.5199 9.00484 31.4573 8.83273 30.4106L8.80812 30.2596Z" fill="white"/>
<path fill-rule="evenodd" clip-rule="evenodd" d="M33.3667 1.79521C33.6726 1.38989 33.4892 1.0829 33.3526 0.957182C33.3526 0.957182 33.3524 0.956985 33.3522 0.956788C33.208 0.843684 33.0328 0.763093 32.8311 0.732551L28.3996 0.0604332C27.9885 -0.0018328 27.5769 0.168808 27.3302 0.503586L24.912 3.78378C24.54 4.28822 24.6674 4.95304 25.1006 5.31048C25.1322 5.33689 25.1408 5.38299 25.119 5.41905C25.1006 5.44881 25.0658 5.46319 25.0333 5.45827L23.8138 5.27324L22.1339 5.01846C21.6664 4.94772 21.1983 5.14142 20.9177 5.52231L13.8492 15.1111C13.7573 15.2358 13.5856 15.2699 13.453 15.1899L6.64868 11.0778C6.19872 10.8059 5.6115 10.9572 5.3498 11.4171C5.09479 11.8652 5.27595 12.4388 5.71686 12.7054L5.89271 12.8116C5.97974 12.864 6.02661 12.9637 6.01145 13.0644L5.80488 14.4346C5.78519 14.5662 5.63809 14.6352 5.52447 14.5664C5.52447 14.5664 4.55385 13.9891 4.52904 13.9739C3.72423 13.4809 2.67228 13.7341 2.17959 14.5394C1.74085 15.2567 1.89464 16.1688 2.50155 16.7083C2.52026 16.7253 2.6963 16.8608 2.74179 16.8886C2.74278 16.8892 2.74376 16.89 2.74475 16.8904C2.74494 16.8906 2.74514 16.8908 2.74514 16.8908L7.82823 20.0047C10.5758 21.6652 12.6644 20.3036 13.3164 19.8153C13.8951 19.3818 14.5526 18.9032 15.6495 19.5696C16.0425 19.8086 16.5388 19.7997 16.9346 19.5651L18.2 18.8149C18.5733 18.5936 19.0383 18.5956 19.4101 18.82L23.2644 21.1495C23.4158 21.2409 23.6119 21.2021 23.7171 21.0596L33.1379 8.29945C33.9063 7.27403 33.3376 6.77531 32.8695 6.65275C32.8394 6.64585 32.81 6.63738 32.7789 6.63265L30.5195 6.29019C30.4862 6.28487 30.4527 6.27068 30.422 6.25196C30.2968 6.17551 30.2574 6.01117 30.334 5.88565C31.0998 4.85058 33.3667 1.79521 33.3667 1.79521Z" fill="white"/>
</svg>
