<svg width="362" height="300" viewBox="0 0 362 300" fill="none" xmlns="http://www.w3.org/2000/svg">
<path d="M349.516 184.584H281.5C278.437 184.584 275.499 183.367 273.333 181.201C271.167 179.035 269.95 176.097 269.95 173.034C269.95 169.971 271.167 167.033 273.333 164.867C275.499 162.701 278.437 161.484 281.5 161.484H349.52C352.583 161.484 355.521 160.267 357.687 158.101C359.853 155.935 361.07 152.997 361.07 149.934C361.07 146.871 359.853 143.933 357.687 141.767C355.521 139.601 352.583 138.384 349.52 138.384H263.677C263.556 138.384 263.445 138.362 263.324 138.362H195.3C192.425 138.364 189.652 137.293 187.525 135.359C185.397 133.425 184.068 130.766 183.798 127.904C183.527 125.041 184.334 122.181 186.061 119.882C187.789 117.583 190.311 116.012 193.136 115.475H272.649C275.712 115.475 278.65 114.258 280.816 112.092C282.982 109.926 284.199 106.988 284.199 103.925C284.199 100.862 282.982 97.924 280.816 95.7579C278.65 93.5919 275.712 92.375 272.649 92.375H265.51C264.793 92.2374 264.065 92.1671 263.335 92.165H248.4C245.578 91.6234 243.06 90.0494 241.337 87.7505C239.614 85.4515 238.81 82.5928 239.081 79.7326C239.353 76.8724 240.682 74.2163 242.807 72.2831C244.932 70.3499 247.702 69.2784 250.575 69.278H341.559C344.622 69.278 347.56 68.0611 349.726 65.8951C351.892 63.729 353.109 60.7912 353.109 57.728C353.109 54.6647 351.892 51.727 349.726 49.5609C347.56 47.3949 344.622 46.178 341.559 46.178H273.539C270.476 46.178 267.538 44.9611 265.372 42.7951C263.206 40.629 261.989 37.6912 261.989 34.628C261.989 31.5647 263.206 28.627 265.372 26.4609C267.538 24.2949 270.476 23.078 273.539 23.078H341.559C344.622 23.078 347.56 21.8611 349.726 19.6951C351.892 17.529 353.109 14.5912 353.109 11.528C353.109 8.46475 351.892 5.52696 349.726 3.36091C347.56 1.19487 344.622 -0.0220032 341.559 -0.0220032H89.78C86.7168 -0.0220032 83.779 1.19487 81.6129 3.36091C79.4469 5.52696 78.23 8.46475 78.23 11.528C78.23 14.5912 79.4469 17.529 81.6129 19.6951C83.779 21.8611 86.7168 23.078 89.78 23.078H157.8C160.675 23.0759 163.448 24.1467 165.575 26.081C167.703 28.0153 169.032 30.6738 169.302 33.5362C169.573 36.3987 168.766 39.2592 167.039 41.5579C165.311 43.8567 162.789 45.4282 159.964 45.965H80.451C77.3878 45.965 74.45 47.1819 72.2839 49.3479C70.1179 51.514 68.901 54.4517 68.901 57.515C68.901 60.5782 70.1179 63.516 72.2839 65.6821C74.45 67.8481 77.3878 69.065 80.451 69.065H87.605C88.3219 69.2026 89.0501 69.2729 89.78 69.275H104.707C107.529 69.8166 110.047 71.3906 111.77 73.6895C113.493 75.9885 114.297 78.8472 114.026 81.7074C113.754 84.5676 112.426 87.2237 110.3 89.1569C108.175 91.0901 105.405 92.1616 102.532 92.162H11.548C8.48371 92.162 5.5449 93.3793 3.37811 95.5461C1.21131 97.7129 -0.0059798 100.652 -0.0059798 103.716C-0.0059798 106.78 1.21131 109.719 3.37811 111.886C5.5449 114.053 8.48371 115.27 11.548 115.27H79.568C82.6313 115.27 85.5691 116.487 87.7351 118.653C89.9012 120.819 91.118 123.757 91.118 126.82C91.118 129.883 89.9012 132.821 87.7351 134.987C85.5691 137.153 82.6313 138.37 79.568 138.37H11.548C10.0232 138.356 8.51067 138.644 7.09782 139.218C5.68497 139.791 4.39979 140.639 3.31652 141.712C2.23326 142.786 1.37338 144.063 0.786549 145.47C0.199723 146.878 -0.102417 148.388 -0.102417 149.913C-0.102417 151.437 0.199723 152.947 0.786549 154.355C1.37338 155.762 2.23326 157.039 3.31652 158.113C4.39979 159.186 5.68497 160.034 7.09782 160.607C8.51067 161.181 10.0232 161.469 11.548 161.455H97.387C97.508 161.455 97.619 161.477 97.74 161.477H165.76C168.719 161.476 171.566 162.611 173.712 164.647C175.859 166.684 177.141 169.467 177.295 172.422C177.449 175.377 176.463 178.279 174.54 180.527C172.616 182.776 169.903 184.201 166.96 184.507H88.422C85.3588 184.507 82.421 185.724 80.2549 187.89C78.0889 190.056 76.872 192.994 76.872 196.057C76.872 199.12 78.0889 202.058 80.2549 204.224C82.421 206.39 85.3588 207.607 88.422 207.607H96.537C96.9402 207.651 97.3455 207.673 97.751 207.673H111.717C114.658 207.984 117.367 209.411 119.287 211.661C121.206 213.91 122.19 216.811 122.034 219.764C121.878 222.717 120.596 225.498 118.45 227.533C116.305 229.568 113.46 230.703 110.503 230.703H19.519C16.4558 230.703 13.518 231.92 11.3519 234.086C9.18589 236.252 7.96902 239.19 7.96902 242.253C7.96902 245.316 9.18589 248.254 11.3519 250.42C13.518 252.586 16.4558 253.803 19.519 253.803H87.539C90.6023 253.803 93.5401 255.02 95.7061 257.186C97.8722 259.352 99.089 262.29 99.089 265.353C99.089 268.416 97.8722 271.354 95.7061 273.52C93.5401 275.686 90.6023 276.903 87.539 276.903H19.508C16.4448 276.903 13.507 278.12 11.3409 280.286C9.17489 282.452 7.95802 285.39 7.95802 288.453C7.95802 291.516 9.17489 294.454 11.3409 296.62C13.507 298.786 16.4448 300.003 19.508 300.003H271.284C274.347 300.003 277.285 298.786 279.451 296.62C281.617 294.454 282.834 291.516 282.834 288.453C282.834 285.39 281.617 282.452 279.451 280.286C277.285 278.12 274.347 276.903 271.284 276.903H203.264C200.305 276.904 197.458 275.769 195.312 273.733C193.165 271.696 191.883 268.913 191.729 265.958C191.575 263.003 192.561 260.101 194.484 257.853C196.408 255.604 199.121 254.179 202.064 253.873H280.616C283.679 253.873 286.617 252.656 288.783 250.49C290.949 248.324 292.166 245.386 292.166 242.323C292.166 239.26 290.949 236.322 288.783 234.156C286.617 231.99 283.679 230.773 280.616 230.773H272.5C272.097 230.729 271.692 230.707 271.286 230.707H257.318C254.377 230.396 251.668 228.969 249.748 226.719C247.829 224.47 246.845 221.569 247.001 218.616C247.157 215.663 248.44 212.882 250.585 210.847C252.73 208.812 255.575 207.677 258.532 207.677H349.516C352.579 207.677 355.517 206.46 357.683 204.294C359.849 202.128 361.066 199.19 361.066 196.127C361.066 193.064 359.849 190.126 357.683 187.96C355.517 185.794 352.579 184.577 349.516 184.577V184.584ZM180.764 69.3C183.639 69.2979 186.412 70.3687 188.539 72.303C190.667 74.2373 191.996 76.8957 192.266 79.7582C192.537 82.6207 191.73 85.4812 190.003 87.7799C188.275 90.0787 185.753 91.6502 182.928 92.187H172.328C169.453 92.1891 166.68 91.1183 164.553 89.184C162.425 87.2497 161.096 84.5912 160.826 81.7288C160.555 78.8663 161.362 76.0058 163.089 73.7071C164.817 71.4083 167.339 69.8368 170.164 69.3H180.764ZM180.3 230.7C177.341 230.701 174.494 229.566 172.348 227.53C170.201 225.493 168.919 222.71 168.765 219.755C168.611 216.8 169.597 213.898 171.52 211.65C173.444 209.401 176.157 207.976 179.1 207.67H188.738C191.697 207.669 194.544 208.804 196.69 210.84C198.837 212.877 200.119 215.66 200.273 218.615C200.427 221.57 199.441 224.472 197.518 226.72C195.594 228.969 192.881 230.394 189.938 230.7H180.3Z" fill="#F1EFFF"/>
<path d="M284.777 50H76.999C74.9995 50 73.0819 50.7943 71.6681 52.2081C70.2542 53.622 69.46 55.5395 69.46 57.539V200.627H292.315V57.545C292.315 55.5451 291.521 53.6269 290.108 52.2121C288.694 50.7972 286.777 50.0016 284.777 50V50Z" fill="white"/>
<path d="M284.798 53.177H77.565C76.3232 53.1855 75.1356 53.6867 74.2633 54.5704C73.3909 55.4542 72.9052 56.6482 72.913 57.89V200.383H289.456V57.89C289.46 57.2747 289.342 56.6646 289.11 56.0948C288.878 55.5249 288.536 55.0063 288.103 54.5686C287.671 54.131 287.156 53.7828 286.589 53.544C286.022 53.3053 285.413 53.1805 284.798 53.177V53.177Z" fill="#7159C1"/>
<path d="M281.675 63.584H80.695V193.527H281.675V63.584Z" fill="#2B2441"/>
<path d="M182.013 59.014C182.013 59.2367 181.947 59.4544 181.823 59.6396C181.699 59.8247 181.524 59.9691 181.318 60.0543C181.112 60.1395 180.886 60.1618 180.667 60.1184C180.449 60.0749 180.248 59.9677 180.091 59.8102C179.933 59.6527 179.826 59.4521 179.783 59.2337C179.739 59.0152 179.761 58.7888 179.847 58.5831C179.932 58.3773 180.076 58.2015 180.261 58.0778C180.447 57.954 180.664 57.888 180.887 57.888C181.186 57.888 181.472 58.0066 181.683 58.2178C181.894 58.429 182.013 58.7154 182.013 59.014V59.014Z" fill="#F7F7F7"/>
<g opacity="0.5">
<path opacity="0.5" d="M95.72 70.743H87.423V74.299H95.72V70.743Z" fill="white"/>
<path opacity="0.5" d="M95.72 77.262H87.423V80.818H95.72V77.262Z" fill="white"/>
<path opacity="0.5" d="M95.72 84.967H87.423V88.523H95.72V84.967Z" fill="white"/>
<path opacity="0.5" d="M95.72 92.672H87.423V96.228H95.72V92.672Z" fill="white"/>
<path opacity="0.5" d="M95.72 100.376H87.423V103.932H95.72V100.376Z" fill="white"/>
<path opacity="0.5" d="M95.72 108.081H87.423V111.637H95.72V108.081Z" fill="white"/>
<path opacity="0.5" d="M95.72 118.168H87.423V121.724H95.72V118.168Z" fill="white"/>
<path opacity="0.5" d="M95.72 124.688H87.423V128.244H95.72V124.688Z" fill="white"/>
<path opacity="0.5" d="M95.72 132.392H87.423V135.948H95.72V132.392Z" fill="white"/>
<path opacity="0.5" d="M95.72 140.097H87.423V143.653H95.72V140.097Z" fill="white"/>
<path opacity="0.5" d="M95.72 147.802H87.423V151.358H95.72V147.802Z" fill="white"/>
<path opacity="0.5" d="M95.72 155.507H87.423V159.063H95.72V155.507Z" fill="white"/>
<path opacity="0.5" d="M95.72 165.582H87.423V169.138H95.72V165.582Z" fill="white"/>
<path opacity="0.5" d="M95.72 172.101H87.423V175.657H95.72V172.101Z" fill="white"/>
<path opacity="0.5" d="M95.72 179.806H87.423V183.362H95.72V179.806Z" fill="white"/>
</g>
<path d="M125.769 70.492H105.618V74.048H125.769V70.492Z" fill="#655792"/>
<path d="M132.881 78.327H112.73V81.883H132.881V78.327Z" fill="#655792"/>
<path d="M144.734 86.162H124.583V89.718H144.734V86.162Z" fill="#655792"/>
<path d="M156.588 93.997H136.437V97.553H156.588V93.997Z" fill="#655792"/>
<path d="M144.734 101.833H124.583V105.389H144.734V101.833Z" fill="#655792"/>
<path d="M132.881 109.668H112.73V113.224H132.881V109.668Z" fill="#655792"/>
<path d="M125.769 117.503H105.618V121.059H125.769V117.503Z" fill="#655792"/>
<path d="M132.881 125.338H112.73V128.894H132.881V125.338Z" fill="#655792"/>
<path d="M144.734 133.173H124.583V136.729H144.734V133.173Z" fill="#655792"/>
<path d="M125.769 164.514H105.618V168.07H125.769V164.514Z" fill="#655792"/>
<path d="M132.881 171.746H112.73V175.302H132.881V171.746Z" fill="#655792"/>
<path d="M144.734 179.581H124.583V183.137H144.734V179.581Z" fill="#655792"/>
<path d="M156.588 141.008H136.437V144.564H156.588V141.008Z" fill="#655792"/>
<path d="M144.734 148.843H124.583V152.399H144.734V148.843Z" fill="#655792"/>
<path d="M132.881 156.678H112.73V160.234H132.881V156.678Z" fill="#655792"/>
<g opacity="0.5">
<path opacity="0.5" d="M197.482 70.492H129.918V74.048H197.482V70.492Z" fill="#E0E4ED"/>
<path opacity="0.5" d="M204.6 78.327H137.03V81.883H204.6V78.327Z" fill="#E0E4ED"/>
<path opacity="0.5" d="M216.447 86.162H148.883V89.718H216.447V86.162Z" fill="#E0E4ED"/>
<path opacity="0.5" d="M228.307 93.997H160.737V97.553H228.307V93.997Z" fill="#E0E4ED"/>
<path opacity="0.5" d="M252.013 101.833H148.883V105.389H252.013V101.833Z" fill="#E0E4ED"/>
<path opacity="0.5" d="M180.887 109.668H137.03V113.224H180.887V109.668Z" fill="#E0E4ED"/>
<path opacity="0.5" d="M197.482 117.503H129.918V121.059H197.482V117.503Z" fill="#E0E4ED"/>
<path opacity="0.5" d="M204.6 125.338H137.03V128.894H204.6V125.338Z" fill="#E0E4ED"/>
<path opacity="0.5" d="M216.447 133.173H148.883V136.729H216.447V133.173Z" fill="#E0E4ED"/>
<path opacity="0.5" d="M197.482 164.514H129.918V168.07H197.482V164.514Z" fill="#E0E4ED"/>
<path opacity="0.5" d="M204.6 171.746H137.03V175.302H204.6V171.746Z" fill="#E0E4ED"/>
<path opacity="0.5" d="M216.447 179.581H148.883V183.137H216.447V179.581Z" fill="#E0E4ED"/>
<path opacity="0.5" d="M263.867 141.008H160.737V144.564H263.867V141.008Z" fill="#E0E4ED"/>
<path opacity="0.5" d="M216.447 148.843H148.883V152.399H216.447V148.843Z" fill="#E0E4ED"/>
<path opacity="0.5" d="M204.6 156.678H137.03V160.234H204.6V156.678Z" fill="#E0E4ED"/>
</g>
<path d="M307.138 198.06H54.637C54.2907 198.06 53.9477 198.128 53.6277 198.26C53.3077 198.393 53.017 198.587 52.7721 198.832C52.5272 199.077 52.3329 199.368 52.2005 199.688C52.068 200.008 51.9999 200.351 52 200.697V204.117C51.9999 204.463 52.068 204.806 52.2005 205.126C52.3329 205.446 52.5272 205.737 52.7721 205.982C53.017 206.227 53.3077 206.421 53.6277 206.554C53.9477 206.686 54.2907 206.754 54.637 206.754H307.137C307.483 206.754 307.826 206.686 308.146 206.554C308.466 206.421 308.757 206.227 309.002 205.982C309.247 205.737 309.441 205.446 309.574 205.126C309.706 204.806 309.774 204.463 309.774 204.117V200.697C309.774 200.351 309.706 200.008 309.574 199.688C309.441 199.368 309.247 199.077 309.002 198.832C308.758 198.588 308.467 198.393 308.147 198.261C307.827 198.128 307.484 198.06 307.138 198.06V198.06Z" fill="#9479EE"/>
<path d="M202.555 201.269H159.225C158.951 201.269 158.689 201.378 158.496 201.571C158.302 201.765 158.193 202.027 158.193 202.301C158.193 202.574 158.302 202.836 158.496 203.03C158.689 203.223 158.951 203.332 159.225 203.332H202.555C202.829 203.332 203.091 203.223 203.284 203.03C203.478 202.836 203.586 202.574 203.586 202.301C203.586 202.027 203.478 201.765 203.284 201.571C203.091 201.378 202.829 201.269 202.555 201.269V201.269Z" fill="#7159C1"/>
<path d="M231.608 144.987C234.822 144.987 237.428 142.381 237.428 139.167C237.428 135.953 234.822 133.347 231.608 133.347C228.394 133.347 225.788 135.953 225.788 139.167C225.788 142.381 228.394 144.987 231.608 144.987Z" fill="#7159C1"/>
<path d="M119.836 232.755L119.866 237.028C119.866 237.028 119.327 239.76 118.894 242.676C118.461 245.592 118.141 248.686 118.568 249.403C119.433 250.843 121.158 249.403 121.448 247.963C121.738 246.523 122.165 237.603 122.165 237.603L122.455 231.848L119.836 232.755Z" fill="#2D2C56"/>
<path d="M115.467 232.186L116.125 236.021C116.125 236.021 117.425 246.529 116.7 248.111C115.975 249.693 113.677 248.976 113.82 246.811C113.963 244.646 113.387 237.026 113.387 237.026L112.087 232.421L115.467 232.186Z" fill="#2D2C56"/>
<path d="M117.246 185.389L117.56 190.119L105.375 195.998C104.308 196.574 103.473 197.501 103.01 198.622C102.548 199.743 102.487 200.989 102.838 202.15L111.278 233.514L115.456 232.186L111.746 203.335C111.622 202.483 111.84 201.616 112.351 200.923C112.863 200.23 113.627 199.768 114.478 199.635L118.816 198.953L123.439 194.241L118.099 199.036C117.462 199.608 116.974 200.327 116.678 201.131C116.381 201.934 116.286 202.798 116.399 203.647L119.831 232.759L123.631 233.707L125.331 205.04C125.391 204.152 125.718 203.303 126.267 202.603C126.817 201.904 127.565 201.386 128.413 201.117L135.922 198.735C136.51 198.377 136.999 197.876 137.344 197.28C137.689 196.683 137.879 196.01 137.896 195.321L137.582 185.228L117.246 185.389Z" fill="#37354C"/>
<path d="M138.357 195.98L136.348 156.811C136.348 156.811 128.015 156.311 125.538 156.311C123.668 156.488 121.828 156.9 120.062 157.538C118.349 158.089 116.927 158.038 116.097 159.63L102.435 185.816L110.827 186.616L113.627 183.416L112.205 181.259L117.305 169.222L116.305 191.08L138.357 195.98Z" fill="#EAD18C"/>
<path opacity="0.5" d="M117.127 164.444L108.071 180.802L110.892 184.102C111.636 184.231 112.401 184.189 113.126 183.978L113.626 183.403L112.204 181.246L117.304 169.209L117.127 164.444Z" fill="url(#paint0_linear)"/>
<path d="M127.987 163.182C129.309 163.181 130.576 162.655 131.51 161.721C132.445 160.787 132.97 159.52 132.971 158.198C132.971 157.656 132.88 157.117 132.704 156.604C130.138 156.468 126.92 156.304 125.533 156.304C124.763 156.336 123.998 156.447 123.251 156.636C123.005 157.385 122.94 158.181 123.061 158.96C123.183 159.738 123.487 160.477 123.949 161.116C124.411 161.754 125.018 162.274 125.719 162.633C126.421 162.991 127.198 163.179 127.986 163.179L127.987 163.182Z" fill="white"/>
<path d="M137.331 163.573L138.356 196.199L124.879 192.969L137.331 163.573Z" fill="url(#paint1_linear)"/>
<path d="M124.696 152.282C124.927 152.75 126.563 159.175 126.563 159.175C126.774 159.5 127.072 159.76 127.422 159.925C127.773 160.091 128.163 160.155 128.548 160.111C129.948 159.992 130.533 158.011 130.533 158.011L128.079 149.951L124.696 152.282Z" fill="#EEBCC5"/>
<path d="M133.343 148.321C133.343 152.748 128.643 157.644 124.216 157.644C119.789 157.644 117.316 152.744 117.316 148.321C117.316 146.195 118.161 144.156 119.664 142.653C121.167 141.15 123.206 140.305 125.332 140.305C127.458 140.305 129.497 141.15 131 142.653C132.503 144.156 133.348 146.195 133.348 148.321H133.343Z" fill="#EEBCC5"/>
<path d="M134.075 150.412C134.877 145.492 131.539 140.854 126.619 140.051C121.699 139.249 117.06 142.588 116.258 147.508C115.456 152.428 118.794 157.066 123.714 157.868C128.634 158.67 133.273 155.332 134.075 150.412Z" fill="#EEBCC5"/>
<path d="M118.78 155.667C118.195 155.617 117.636 155.402 117.17 155.046C116.703 154.69 116.346 154.209 116.143 153.658C116.037 153.406 115.992 153.133 116.013 152.861C116.034 152.589 116.119 152.326 116.262 152.093C116.396 151.913 116.571 151.768 116.774 151.672C116.977 151.576 117.2 151.531 117.424 151.542C118.009 151.592 118.568 151.807 119.034 152.163C119.501 152.519 119.858 153 120.061 153.551C120.167 153.801 120.212 154.074 120.191 154.345C120.171 154.616 120.085 154.879 119.942 155.11C119.81 155.292 119.634 155.438 119.431 155.535C119.229 155.633 119.005 155.678 118.78 155.667V155.667ZM117.423 151.856C117.249 151.846 117.075 151.879 116.917 151.952C116.758 152.026 116.621 152.137 116.516 152.277C116.402 152.468 116.335 152.683 116.322 152.905C116.309 153.126 116.349 153.348 116.439 153.551C116.619 154.042 116.935 154.471 117.349 154.79C117.763 155.108 118.26 155.303 118.78 155.351C118.954 155.361 119.128 155.328 119.286 155.255C119.445 155.181 119.582 155.07 119.687 154.93C119.801 154.739 119.868 154.524 119.881 154.302C119.894 154.081 119.854 153.859 119.764 153.656C119.585 153.165 119.269 152.735 118.855 152.416C118.44 152.097 117.944 151.903 117.423 151.856V151.856Z" fill="#EFF2F7"/>
<path d="M124.097 155.667C123.512 155.617 122.953 155.402 122.486 155.046C122.02 154.69 121.663 154.209 121.46 153.658C121.354 153.406 121.309 153.133 121.33 152.861C121.351 152.589 121.436 152.326 121.579 152.093C121.713 151.913 121.888 151.768 122.091 151.672C122.294 151.576 122.517 151.531 122.741 151.542C123.326 151.592 123.885 151.807 124.351 152.163C124.818 152.519 125.174 153 125.378 153.551C125.484 153.801 125.529 154.074 125.509 154.345C125.488 154.616 125.403 154.879 125.26 155.11C125.128 155.292 124.952 155.438 124.749 155.536C124.546 155.633 124.322 155.678 124.097 155.667V155.667ZM122.74 151.856C122.566 151.846 122.392 151.879 122.233 151.952C122.075 152.026 121.938 152.137 121.833 152.277C121.719 152.468 121.652 152.683 121.639 152.905C121.626 153.126 121.666 153.348 121.756 153.551C121.936 154.042 122.252 154.471 122.666 154.79C123.08 155.108 123.577 155.303 124.097 155.351C124.271 155.361 124.445 155.328 124.603 155.255C124.762 155.181 124.899 155.07 125.004 154.93C125.118 154.739 125.185 154.524 125.198 154.302C125.211 154.081 125.171 153.859 125.081 153.656C124.902 153.165 124.586 152.734 124.172 152.416C123.757 152.097 123.26 151.903 122.739 151.856H122.74Z" fill="#EFF2F7"/>
<path d="M119.728 154.15C119.87 154.399 119.852 154.683 119.681 154.778C119.51 154.873 119.254 154.754 119.112 154.505C118.97 154.256 118.988 153.972 119.159 153.877C119.33 153.782 119.581 153.901 119.728 154.15Z" fill="#2D2B42"/>
<path d="M123.736 154.339C123.878 154.588 123.86 154.872 123.689 154.967C123.518 155.062 123.262 154.943 123.12 154.694C122.978 154.445 122.996 154.161 123.167 154.066C123.338 153.971 123.594 154.09 123.736 154.339Z" fill="#2D2B42"/>
<path d="M126.858 192.211C126.508 192.092 123.545 190.658 121.441 190.658C119.337 190.658 116.765 192.881 116.765 192.881C116.765 192.881 116.415 194.049 117.814 193.817C119.213 193.585 117.614 194.7 117.614 194.7C118.178 194.835 118.75 194.93 119.327 194.984C120.963 195.215 127.34 194.877 127.34 194.877L126.858 192.211Z" fill="#EEBCC5"/>
<path d="M136.347 156.811L137.473 182.592L126.873 192.175L127.373 194.866L142.296 186.901C143 186.525 143.572 185.942 143.935 185.231C144.297 184.52 144.433 183.715 144.323 182.924L141.603 163.2C141.492 161.99 141.073 160.829 140.385 159.828C139.697 158.827 138.763 158.018 137.674 157.481L136.347 156.811Z" fill="#EAD18C"/>
<path d="M127.943 197.076H100.953V195.096H127.943C128.205 195.097 128.457 195.201 128.642 195.387C128.828 195.572 128.932 195.824 128.933 196.086V196.086C128.934 196.216 128.909 196.345 128.859 196.466C128.81 196.586 128.737 196.696 128.645 196.788C128.553 196.88 128.443 196.953 128.323 197.002C128.202 197.052 128.073 197.077 127.943 197.076V197.076Z" fill="white"/>
<path d="M120.541 197.076H94.511C93.9516 197.075 93.4079 196.89 92.9643 196.55C92.5206 196.209 92.2017 195.731 92.057 195.191L87.464 177.887C87.3643 177.511 87.3522 177.117 87.4288 176.736C87.5054 176.355 87.6685 175.996 87.9057 175.688C88.1428 175.38 88.4476 175.13 88.7965 174.959C89.1454 174.787 89.5291 174.698 89.918 174.698H112.647C113.206 174.699 113.75 174.883 114.194 175.224C114.637 175.565 114.956 176.043 115.101 176.583L120.541 197.076Z" fill="white"/>
<path d="M89.918 174.695C89.5291 174.695 89.1454 174.784 88.7965 174.956C88.4476 175.127 88.1428 175.377 87.9057 175.685C87.6685 175.993 87.5054 176.352 87.4288 176.733C87.3522 177.114 87.3643 177.508 87.464 177.884L92.057 195.19C92.1964 195.709 92.4973 196.17 92.916 196.506L108.741 174.685H89.918V174.695Z" fill="url(#paint2_linear)"/>
<path d="M125.163 139.943C122.951 139.945 120.816 140.759 119.164 142.23C117.512 143.702 116.458 145.729 116.202 147.926C117.056 148.57 118.043 149.015 119.091 149.227C120.139 149.44 121.222 149.415 122.259 149.155C123.296 148.895 124.262 148.406 125.086 147.723C125.909 147.041 126.569 146.183 127.018 145.212C126.909 146.21 126.919 147.217 127.048 148.212C127.178 149.217 127.664 150.142 128.417 150.82C128.422 150.113 128.591 149.418 128.909 148.787C129.077 148.477 129.344 148.233 129.668 148.094C129.992 147.956 130.353 147.93 130.693 148.022C130.923 148.128 131.122 148.292 131.269 148.498C131.417 148.703 131.509 148.944 131.535 149.196C131.582 149.701 131.498 150.209 131.292 150.672C131.001 151.411 130.575 152.089 130.036 152.672C131.11 152.871 132.206 152.935 133.296 152.862C133.956 151.487 134.257 149.968 134.17 148.445C134.084 146.922 133.612 145.447 132.8 144.156C131.987 142.865 130.861 141.801 129.526 141.064C128.19 140.327 126.69 139.941 125.165 139.942L125.163 139.943Z" fill="#7159C1"/>
<path d="M132.904 150.457C132.904 150.997 132.744 151.526 132.444 151.975C132.143 152.424 131.717 152.774 131.218 152.981C130.718 153.188 130.169 153.242 129.639 153.136C129.109 153.031 128.622 152.771 128.24 152.389C127.858 152.007 127.598 151.52 127.492 150.99C127.387 150.46 127.441 149.911 127.648 149.411C127.855 148.912 128.205 148.486 128.654 148.185C129.103 147.885 129.632 147.725 130.172 147.725C130.897 147.725 131.591 148.013 132.104 148.525C132.616 149.038 132.904 149.732 132.904 150.457V150.457Z" fill="#EEBCC5"/>
<path d="M115.468 232.186L115.96 235.049L113.086 235.956L112.292 233.129L115.468 232.186Z" fill="#EEBCC5"/>
<path d="M119.86 235.955L122.231 236.411L122.379 233.394L119.836 232.754L119.86 235.955Z" fill="#EEBCC5"/>
<path d="M242.089 232.755L242.059 237.028C242.059 237.028 242.598 239.76 243.031 242.676C243.464 245.592 243.784 248.686 243.357 249.403C242.492 250.843 240.767 249.403 240.477 247.963C240.187 246.523 239.76 237.603 239.76 237.603L239.47 231.848L242.089 232.755Z" fill="#2D2C56"/>
<path d="M246.462 232.186L245.804 236.021C245.804 236.021 244.504 246.529 245.229 248.111C245.954 249.693 248.252 248.976 248.109 246.811C247.966 244.646 248.542 237.026 248.542 237.026L249.842 232.421L246.462 232.186Z" fill="#2D2C56"/>
<path d="M244.678 185.389L244.364 190.119L256.549 195.998C257.616 196.573 258.452 197.5 258.913 198.622C259.375 199.743 259.434 200.99 259.08 202.15L250.64 233.514L246.462 232.186L250.172 203.335C250.296 202.483 250.078 201.616 249.567 200.923C249.055 200.23 248.291 199.768 247.44 199.635L243.099 198.953L238.476 194.241L243.816 199.036C244.453 199.608 244.941 200.327 245.237 201.131C245.534 201.934 245.629 202.798 245.516 203.647L242.088 232.753L238.288 233.701L236.593 205.034C236.533 204.146 236.206 203.297 235.657 202.597C235.107 201.898 234.359 201.38 233.511 201.111L226.002 198.729C225.414 198.371 224.925 197.87 224.58 197.274C224.235 196.677 224.045 196.004 224.028 195.315L224.342 185.222L244.678 185.389Z" fill="#7159C1"/>
<path d="M223.567 195.98L225.576 156.811C225.576 156.811 233.909 156.311 236.386 156.311C238.256 156.488 240.096 156.9 241.862 157.538C243.575 158.089 244.997 158.038 245.827 159.63L259.488 185.814L251.096 186.614L248.296 183.414L249.718 181.257L244.617 169.223L245.617 191.081L223.567 195.98Z" fill="#D98E9D"/>
<path opacity="0.5" d="M244.802 164.444L253.858 180.802L251.037 184.102C250.293 184.231 249.528 184.189 248.803 183.978L248.303 183.403L249.725 181.246L244.625 169.209L244.802 164.444Z" fill="url(#paint3_linear)"/>
<path d="M236.754 168.143C234.004 168.143 228.954 160.954 228.954 158.204C228.954 157.662 229.045 157.123 229.221 156.61C231.787 156.474 235.005 156.31 236.392 156.31C237.162 156.342 237.927 156.453 238.674 156.642C238.839 157.145 238.923 157.671 238.923 158.201C238.923 160.954 239.504 168.143 236.754 168.143Z" fill="white"/>
<path d="M224.592 163.573L223.567 196.199L237.044 192.969L224.592 163.573Z" fill="url(#paint4_linear)"/>
<path d="M237.228 152.282C236.997 152.75 235.361 159.175 235.361 159.175C235.15 159.5 234.852 159.76 234.502 159.925C234.151 160.091 233.761 160.155 233.376 160.111C231.976 159.992 231.391 158.011 231.391 158.011L233.845 149.951L237.228 152.282Z" fill="#EEBCC5"/>
<path d="M228.581 148.321C228.581 152.748 233.281 157.644 237.708 157.644C242.135 157.644 244.608 152.744 244.608 148.321C244.608 146.195 243.763 144.156 242.26 142.653C240.757 141.15 238.718 140.305 236.592 140.305C234.466 140.305 232.427 141.15 230.924 142.653C229.421 144.156 228.576 146.195 228.576 148.321H228.581Z" fill="#EEBCC5"/>
<path d="M238.213 157.892C243.133 157.089 246.471 152.451 245.669 147.531C244.867 142.611 240.228 139.273 235.308 140.075C230.388 140.877 227.05 145.515 227.852 150.435C228.654 155.355 233.293 158.694 238.213 157.892Z" fill="#EEBCC5"/>
<path d="M242.704 153.871C242.526 154.185 242.55 154.535 242.763 154.659C242.976 154.783 243.296 154.629 243.474 154.321C243.652 154.013 243.628 153.657 243.415 153.533C243.202 153.409 242.882 153.563 242.704 153.871Z" fill="#2D2B42"/>
<path d="M238.164 154.363C237.964 154.707 237.998 155.092 238.235 155.228C238.472 155.364 238.822 155.198 239.017 154.855C239.212 154.512 239.183 154.126 238.946 153.99C238.709 153.854 238.36 154.019 238.164 154.363Z" fill="#2D2B42"/>
<path d="M235.071 192.211C235.421 192.092 238.384 190.658 240.488 190.658C242.592 190.658 245.164 192.881 245.164 192.881C245.164 192.881 245.514 194.049 244.115 193.817C242.716 193.585 244.315 194.7 244.315 194.7C243.751 194.835 243.179 194.93 242.602 194.984C240.966 195.215 234.589 194.877 234.589 194.877L235.071 192.211Z" fill="#EEBCC5"/>
<path d="M225.583 156.811L224.457 182.592L235.057 192.175L234.557 194.866L219.634 186.901C218.93 186.525 218.358 185.942 217.995 185.231C217.633 184.52 217.497 183.715 217.607 182.924L220.327 163.2C220.437 161.991 220.855 160.831 221.541 159.83C222.226 158.829 223.158 158.02 224.245 157.481L225.583 156.811Z" fill="#D98E9D"/>
<path d="M233.981 197.077H260.971V195.097H233.981C233.719 195.098 233.467 195.202 233.282 195.388C233.096 195.573 232.992 195.825 232.991 196.087V196.087C232.991 196.217 233.016 196.346 233.066 196.466C233.115 196.586 233.188 196.696 233.28 196.788C233.372 196.88 233.482 196.952 233.602 197.002C233.722 197.052 233.851 197.077 233.981 197.077V197.077Z" fill="white"/>
<path d="M241.383 197.077H267.413C267.972 197.076 268.516 196.891 268.96 196.551C269.403 196.21 269.722 195.732 269.867 195.192L274.46 177.888C274.56 177.512 274.572 177.118 274.495 176.737C274.419 176.356 274.255 175.997 274.018 175.689C273.781 175.381 273.476 175.131 273.127 174.96C272.779 174.788 272.395 174.699 272.006 174.699H249.273C248.714 174.7 248.17 174.884 247.726 175.225C247.283 175.566 246.964 176.044 246.819 176.584L241.383 197.077Z" fill="white"/>
<path d="M272.006 174.696C272.395 174.696 272.778 174.784 273.127 174.956C273.476 175.127 273.781 175.376 274.018 175.684C274.256 175.991 274.419 176.35 274.496 176.731C274.574 177.112 274.562 177.505 274.463 177.881L269.863 195.186C269.724 195.705 269.423 196.166 269.004 196.502L253.183 174.686H272.006V174.696Z" fill="url(#paint5_linear)"/>
<path d="M236.76 139.943C238.972 139.945 241.107 140.759 242.759 142.23C244.411 143.702 245.465 145.729 245.721 147.926C244.867 148.57 243.88 149.015 242.832 149.227C241.784 149.44 240.701 149.415 239.664 149.155C238.627 148.895 237.661 148.406 236.837 147.723C236.014 147.041 235.354 146.183 234.905 145.212C235.014 146.21 235.004 147.217 234.875 148.212C234.745 149.217 234.259 150.142 233.506 150.82C233.501 150.113 233.332 149.418 233.014 148.787C232.846 148.477 232.579 148.233 232.255 148.094C231.931 147.956 231.57 147.93 231.23 148.022C231 148.128 230.801 148.292 230.654 148.498C230.506 148.703 230.414 148.944 230.388 149.196C230.341 149.701 230.425 150.209 230.631 150.672C230.922 151.411 231.348 152.089 231.887 152.672C230.813 152.871 229.717 152.935 228.627 152.862C227.967 151.487 227.666 149.968 227.753 148.445C227.839 146.922 228.311 145.447 229.123 144.156C229.936 142.865 231.062 141.801 232.397 141.064C233.733 140.327 235.233 139.941 236.758 139.942L236.76 139.943Z" fill="#7159C1"/>
<path d="M229.02 150.457C229.02 150.997 229.18 151.526 229.48 151.975C229.781 152.424 230.207 152.774 230.707 152.981C231.206 153.188 231.755 153.242 232.285 153.137C232.815 153.031 233.302 152.771 233.684 152.389C234.066 152.007 234.326 151.52 234.432 150.99C234.537 150.46 234.483 149.911 234.276 149.412C234.069 148.912 233.719 148.486 233.27 148.185C232.821 147.885 232.292 147.725 231.752 147.725C231.028 147.725 230.333 148.013 229.82 148.525C229.308 149.038 229.02 149.733 229.02 150.457V150.457Z" fill="#EEBCC5"/>
<path d="M246.462 232.186L245.97 235.049L248.839 235.956L249.633 233.129L246.462 232.186Z" fill="#EEBCC5"/>
<path d="M242.071 235.955L239.7 236.411L239.546 233.394L242.089 232.754L242.071 235.955Z" fill="#EEBCC5"/>
<path d="M178.789 141.253L175.589 145.182L173.989 148.531L172.519 152.739C171.657 153.512 170.838 154.331 170.065 155.193C170.207 155.229 169.917 158.139 170.207 158.577C170.497 159.015 173.419 162.506 173.419 162.506C174.658 163.342 175.983 164.041 177.372 164.592C178.498 164.835 184.172 167.306 184.172 167.306L187.663 163.957L186.353 162.209C186.353 162.209 189.992 160.028 190.431 159.738C190.87 159.448 192.612 157.699 192.612 157.699C192.572 156.856 192.463 156.017 192.286 155.192C192.031 154.208 190.286 149.408 190.286 149.408C190.286 149.408 187.957 146.059 187.666 145.479C187.375 144.899 186.066 143.008 186.066 143.008L178.789 141.253Z" fill="#37354C"/>
<path d="M192.901 187.476L170.593 187.648L170.421 164.961C170.418 164.642 170.478 164.327 170.597 164.031C170.717 163.736 170.893 163.467 171.117 163.24C171.34 163.013 171.606 162.833 171.9 162.709C172.193 162.585 172.508 162.521 172.827 162.519L190.287 162.389C190.606 162.386 190.921 162.446 191.217 162.565C191.512 162.685 191.781 162.861 192.008 163.085C192.235 163.308 192.415 163.574 192.539 163.868C192.663 164.161 192.727 164.476 192.729 164.795L192.901 187.476Z" fill="#7159C1"/>
<path d="M177.349 162.5C177.349 162.5 179.032 164.444 179.032 168.516C179.032 172.588 179.168 180.085 179.168 180.085L184.176 180.109V168.32C184.106 167.007 184.318 165.694 184.797 164.469C185.277 163.244 186.013 162.137 186.956 161.22L181.503 161.356L177.349 162.5Z" fill="#37354C"/>
<path d="M181.408 167.236C181.051 167.238 180.697 167.171 180.366 167.036C180.035 166.902 179.734 166.704 179.48 166.453C179.226 166.202 179.023 165.904 178.884 165.575C178.745 165.246 178.672 164.893 178.67 164.536L178.605 156.28C178.605 156.232 178.614 156.185 178.632 156.14C178.65 156.096 178.676 156.055 178.71 156.021C178.743 155.987 178.783 155.96 178.828 155.942C178.872 155.923 178.919 155.913 178.967 155.913L183.667 155.877C183.715 155.877 183.762 155.886 183.807 155.904C183.851 155.922 183.892 155.948 183.926 155.982C183.96 156.015 183.987 156.055 184.005 156.1C184.024 156.144 184.034 156.191 184.034 156.239L184.099 164.495C184.103 164.852 184.037 165.206 183.903 165.537C183.77 165.868 183.573 166.17 183.323 166.425C183.073 166.679 182.775 166.882 182.446 167.021C182.118 167.161 181.765 167.234 181.408 167.236V167.236Z" fill="#EEBCC5"/>
<path d="M190.85 154.387C190.85 154.292 190.856 154.203 190.856 154.108C190.856 153.306 190.755 152.508 190.556 151.731V150.676C190.549 148.182 189.555 145.792 187.792 144.028C186.028 142.265 183.638 141.271 181.144 141.264V141.264C178.65 141.271 176.26 142.265 174.496 144.028C172.733 145.792 171.739 148.182 171.732 150.676V154.376H190.846L190.85 154.387Z" fill="#9B5342"/>
<path d="M189.836 151.761V150.854C189.83 148.553 188.913 146.348 187.286 144.721C185.659 143.094 183.454 142.177 181.153 142.171V142.171C178.852 142.177 176.647 143.094 175.02 144.721C173.393 146.348 172.476 148.553 172.47 150.854V154.41C172.472 154.643 172.497 154.875 172.547 155.103C172.706 156.294 173.107 157.439 173.725 158.469C174.343 159.5 175.164 160.393 176.139 161.094C177.115 161.795 178.223 162.29 179.396 162.548C180.57 162.806 181.783 162.821 182.963 162.593C184.142 162.365 185.262 161.898 186.255 161.222C187.248 160.545 188.092 159.673 188.735 158.659C189.379 157.644 189.808 156.509 189.997 155.323C190.186 154.137 190.131 152.924 189.835 151.76L189.836 151.761Z" fill="#EEBCC5"/>
<path d="M178.486 155.507C178.486 155.639 178.447 155.769 178.373 155.879C178.299 155.989 178.195 156.075 178.072 156.126C177.95 156.177 177.815 156.19 177.685 156.164C177.555 156.138 177.436 156.074 177.342 155.981C177.249 155.887 177.185 155.768 177.159 155.638C177.133 155.508 177.146 155.373 177.197 155.251C177.248 155.128 177.334 155.024 177.444 154.95C177.554 154.876 177.683 154.837 177.816 154.837C177.904 154.837 177.991 154.854 178.073 154.888C178.154 154.921 178.228 154.971 178.29 155.033C178.352 155.095 178.402 155.169 178.435 155.25C178.469 155.332 178.486 155.419 178.486 155.507Z" fill="#37354C"/>
<path d="M184.828 155.507C184.828 155.639 184.789 155.769 184.715 155.879C184.641 155.989 184.537 156.075 184.414 156.126C184.292 156.177 184.157 156.19 184.027 156.164C183.897 156.138 183.778 156.074 183.684 155.981C183.591 155.887 183.527 155.768 183.501 155.638C183.475 155.508 183.488 155.373 183.539 155.251C183.59 155.128 183.676 155.024 183.786 154.95C183.896 154.876 184.025 154.837 184.158 154.837C184.246 154.837 184.333 154.854 184.415 154.888C184.496 154.921 184.57 154.971 184.632 155.033C184.694 155.095 184.744 155.169 184.777 155.25C184.811 155.332 184.828 155.419 184.828 155.507Z" fill="#37354C"/>
<path d="M174.978 155.193C174.978 155.678 174.834 156.153 174.564 156.556C174.295 156.96 173.912 157.274 173.463 157.46C173.015 157.646 172.521 157.695 172.045 157.6C171.569 157.505 171.132 157.271 170.789 156.928C170.446 156.585 170.212 156.148 170.117 155.672C170.022 155.196 170.071 154.702 170.257 154.254C170.443 153.805 170.757 153.422 171.161 153.153C171.564 152.883 172.039 152.739 172.524 152.739C172.846 152.739 173.166 152.802 173.464 152.925C173.761 153.048 174.032 153.229 174.26 153.457C174.488 153.685 174.669 153.956 174.792 154.253C174.915 154.551 174.978 154.871 174.978 155.193V155.193Z" fill="#EEBCC5"/>
<path d="M192.29 155.193C192.29 155.678 192.146 156.153 191.876 156.556C191.607 156.96 191.224 157.274 190.775 157.46C190.327 157.646 189.833 157.695 189.357 157.6C188.881 157.505 188.444 157.271 188.101 156.928C187.758 156.585 187.524 156.148 187.429 155.672C187.334 155.196 187.383 154.702 187.569 154.254C187.755 153.805 188.069 153.422 188.473 153.153C188.876 152.883 189.351 152.739 189.836 152.739C190.158 152.739 190.478 152.802 190.776 152.925C191.073 153.048 191.344 153.229 191.572 153.457C191.8 153.685 191.981 153.956 192.104 154.253C192.227 154.551 192.29 154.871 192.29 155.193V155.193Z" fill="#EEBCC5"/>
<path d="M181.824 197.539L170.889 202.67L172.916 236.019H168.998L161.074 201.819C160.904 201.083 160.97 200.312 161.262 199.615C161.555 198.918 162.059 198.331 162.704 197.937L173.052 191.596L181.824 197.539Z" fill="#BCBACE"/>
<path d="M172.466 153.581C172.062 153.616 171.687 153.801 171.413 154.099C171.139 154.398 170.987 154.788 170.987 155.193C170.987 155.598 171.139 155.988 171.413 156.287C171.687 156.585 172.062 156.77 172.466 156.805V153.581Z" fill="#D98E9D"/>
<path d="M189.671 153.581C190.075 153.616 190.45 153.801 190.724 154.099C190.998 154.398 191.15 154.788 191.15 155.193C191.15 155.598 190.998 155.988 190.724 156.287C190.45 156.585 190.075 156.77 189.671 156.805V153.581Z" fill="#D98E9D"/>
<path d="M184.165 169.322H179.121V196.2H184.165V169.322Z" fill="#37354C"/>
<path d="M187.252 151.767C187.483 152.514 187.827 153.367 188.58 153.575C188.886 153.619 189.197 153.598 189.494 153.512C189.79 153.425 190.065 153.276 190.299 153.075C190.448 152.995 190.58 152.885 190.686 152.753C190.792 152.621 190.87 152.468 190.915 152.305C190.926 152.02 190.845 151.74 190.684 151.505C190.198 150.52 189.6 149.595 188.9 148.749C188.254 148.02 187.086 146.841 186.4 148.085C185.931 148.94 186.992 150.92 187.252 151.767Z" fill="#37354C"/>
<path d="M188.165 146.203C186.187 144.725 183.783 143.927 181.314 143.927L181.414 142.374C178.865 142.374 176.4 144.768 174.486 146.185C176.157 148.085 178.605 149.877 181.331 149.877C184.057 149.877 186.493 148.092 188.165 146.203Z" fill="#37354C"/>
<path d="M158.241 183.007C158.08 182.766 157.972 182.493 157.923 182.208C157.874 181.922 157.886 181.629 157.957 181.348C159.213 176.328 168.186 164.516 168.584 164.018C169.177 163.271 172.247 162.602 172.247 162.602L172.603 170.71L164.495 180.246C164.235 180.552 164.07 180.928 164.02 181.327C163.971 181.726 164.039 182.131 164.216 182.492L170.616 195.513L167.238 196.455L158.241 183.007Z" fill="#7159C1"/>
<path d="M187.489 191.6L197.837 197.941C198.482 198.335 198.986 198.922 199.279 199.619C199.571 200.316 199.637 201.087 199.467 201.823L191.543 236.023H187.625L189.652 202.674L178.717 197.542L187.489 191.6Z" fill="#BCBACE"/>
<path d="M203.634 182.74C203.898 182.288 203.991 181.755 203.895 181.24C202.911 176.333 194.88 164.521 194.477 164.023C193.884 163.276 190.814 162.607 190.814 162.607L190.458 170.715L197.428 180.026C197.657 180.333 197.804 180.693 197.855 181.073C197.906 181.452 197.859 181.839 197.718 182.195L192.437 195.518L195.815 196.46L203.634 182.74Z" fill="#7159C1"/>
<path d="M175.133 151.767C174.902 152.514 174.558 153.367 173.805 153.575C173.499 153.619 173.188 153.598 172.891 153.512C172.595 153.425 172.32 153.276 172.086 153.075C171.937 152.995 171.805 152.885 171.699 152.753C171.593 152.621 171.515 152.468 171.47 152.305C171.459 152.02 171.54 151.74 171.701 151.505C172.187 150.52 172.785 149.595 173.485 148.749C174.131 148.02 175.299 146.841 175.985 148.085C176.465 148.94 175.399 150.92 175.133 151.767Z" fill="#37354C"/>
<path d="M172.145 195.639C172.145 196.198 171.979 196.745 171.669 197.21C171.358 197.674 170.916 198.037 170.4 198.251C169.883 198.465 169.315 198.521 168.766 198.412C168.218 198.303 167.714 198.033 167.319 197.638C166.924 197.243 166.654 196.739 166.545 196.191C166.436 195.642 166.492 195.074 166.706 194.557C166.92 194.041 167.283 193.599 167.747 193.288C168.212 192.978 168.759 192.812 169.318 192.812C170.068 192.813 170.786 193.111 171.316 193.641C171.846 194.171 172.144 194.889 172.145 195.639Z" fill="#EEBCC5"/>
<path d="M188.995 143.871C187.839 140.837 181.356 139.811 181.273 139.799C181.19 139.811 174.706 140.836 173.551 143.871C172.389 146.929 168.904 155.517 169.051 157.84C169.198 160.163 173.419 162.498 173.419 162.498H177.348C177.348 162.498 171.528 158.569 170.948 156.82C170.368 155.071 172.548 153.181 173.117 152.731C174.824 149.718 176.967 146.974 179.476 144.588C179.967 144.137 180.609 143.887 181.276 143.887C181.943 143.887 182.585 144.137 183.076 144.588C185.585 146.974 187.728 149.718 189.435 152.731C190.004 153.181 192.185 155.078 191.604 156.82C191.023 158.562 185.804 162.468 185.804 162.468L189.129 162.498C189.129 162.498 193.349 160.169 193.497 157.84C193.645 155.511 190.163 146.931 188.995 143.871Z" fill="#7159C1"/>
<path d="M196.807 196.146C196.841 195.588 196.709 195.033 196.427 194.55C196.145 194.067 195.727 193.679 195.224 193.434C194.722 193.189 194.158 193.099 193.605 193.174C193.051 193.25 192.532 193.488 192.113 193.858C191.695 194.228 191.395 194.715 191.253 195.255C191.111 195.796 191.132 196.366 191.314 196.895C191.496 197.423 191.831 197.886 192.276 198.224C192.721 198.562 193.256 198.761 193.814 198.795C194.562 198.84 195.297 198.586 195.858 198.089C196.419 197.593 196.76 196.894 196.807 196.146V196.146Z" fill="#EEBCC5"/>
<path d="M172.91 236.027L173.449 241.027C173.449 241.027 168.388 249.407 166.39 249.609C164.392 249.811 165.252 246.278 166.39 244.66C167.528 243.042 169.756 239.66 169.756 239.66L170.609 236.033L172.91 236.027Z" fill="#2D2C56"/>
<path d="M188.331 236.027L187.792 241.027C187.792 241.027 192.853 249.407 194.851 249.609C196.849 249.811 195.989 246.278 194.851 244.66C193.713 243.042 191.485 239.66 191.485 239.66L190.632 236.033L188.331 236.027Z" fill="#2D2C56"/>
<path d="M168.992 198.967H194.655C195.128 198.967 195.587 198.808 195.957 198.514C196.327 198.22 196.587 197.809 196.694 197.349L198.863 188.074C198.939 187.652 198.921 187.219 198.811 186.805C198.7 186.391 198.5 186.006 198.224 185.678C197.948 185.35 197.602 185.088 197.213 184.909C196.824 184.729 196.4 184.638 195.971 184.642L166.581 184.867C166.152 184.87 165.73 184.968 165.343 185.154C164.956 185.339 164.615 185.607 164.344 185.94C164.073 186.272 163.879 186.66 163.775 187.076C163.671 187.492 163.659 187.925 163.742 188.346L167.025 197.58C167.17 197.986 167.436 198.337 167.789 198.585C168.141 198.834 168.561 198.967 168.992 198.967V198.967Z" fill="white"/>
<path d="M184.686 184.725L166.574 184.861C166.145 184.864 165.723 184.962 165.336 185.148C164.949 185.333 164.608 185.601 164.337 185.934C164.066 186.266 163.872 186.654 163.768 187.07C163.664 187.486 163.652 187.919 163.735 188.34L167.018 197.574C167.162 197.982 167.43 198.335 167.783 198.584C168.137 198.834 168.559 198.968 168.992 198.967H173.597L184.686 184.725Z" fill="url(#paint6_linear)"/>
<defs>
<linearGradient id="paint0_linear" x1="108.071" y1="174.31" x2="117.295" y2="174.31" gradientUnits="userSpaceOnUse">
<stop stop-color="#EAD18C" stop-opacity="0"/>
<stop offset="1" stop-color="#524F63" stop-opacity="0.702"/>
</linearGradient>
<linearGradient id="paint1_linear" x1="110.984" y1="190.522" x2="162.803" y2="187.023" gradientUnits="userSpaceOnUse">
<stop stop-color="#EAD18C" stop-opacity="0"/>
<stop offset="1" stop-color="#524F63" stop-opacity="0.702"/>
</linearGradient>
<linearGradient id="paint2_linear" x1="108.698" y1="185.792" x2="63.7304" y2="184.767" gradientUnits="userSpaceOnUse">
<stop stop-color="#484EC2" stop-opacity="0"/>
<stop offset="1" stop-color="#444BCC" stop-opacity="0.502"/>
</linearGradient>
<linearGradient id="paint3_linear" x1="221.672" y1="174.31" x2="230.905" y2="174.31" gradientUnits="userSpaceOnUse">
<stop stop-color="#D37897" stop-opacity="0"/>
<stop offset="0.899" stop-color="#BC547C"/>
</linearGradient>
<linearGradient id="paint4_linear" x1="224.564" y1="190.522" x2="276.383" y2="187.023" gradientUnits="userSpaceOnUse">
<stop stop-color="#D37897" stop-opacity="0"/>
<stop offset="0.899" stop-color="#BC547C"/>
</linearGradient>
<linearGradient id="paint5_linear" x1="222.27" y1="185.79" x2="177.298" y2="184.765" gradientUnits="userSpaceOnUse">
<stop stop-color="#484EC2" stop-opacity="0"/>
<stop offset="1" stop-color="#444BCC" stop-opacity="0.502"/>
</linearGradient>
<linearGradient id="paint6_linear" x1="177.145" y1="191.746" x2="150.589" y2="193.108" gradientUnits="userSpaceOnUse">
<stop stop-color="#484EC2" stop-opacity="0"/>
<stop offset="1" stop-color="#444BCC" stop-opacity="0.502"/>
</linearGradient>
</defs>
</svg>
